<?xml version="1.0" encoding="UTF-8" standalone="no"?>
<!DOCTYPE svg PUBLIC "-//W3C//DTD SVG 1.1//EN"
 "http://www.w3.org/Graphics/SVG/1.1/DTD/svg11.dtd">
<!-- Generated by graphviz version 2.38.0 (20140413.2041)
 -->
<!-- Title: G Pages: 1 -->
<svg width="374pt" height="149pt"
 viewBox="0.00 0.00 373.86 149.00" xmlns="http://www.w3.org/2000/svg" xmlns:xlink="http://www.w3.org/1999/xlink">
<g id="graph0" class="graph" transform="scale(1 1) rotate(0) translate(4 145)">
<title>G</title>
<polygon fill="white" stroke="none" points="-4,4 -4,-145 369.861,-145 369.861,4 -4,4"/>
<g id="clust1" class="cluster"><title>cluster_Global</title>
<path fill="none" stroke="gray" d="M172.834,-8C172.834,-8 345.861,-8 345.861,-8 351.861,-8 357.861,-14 357.861,-20 357.861,-20 357.861,-121 357.861,-121 357.861,-127 351.861,-133 345.861,-133 345.861,-133 172.834,-133 172.834,-133 166.834,-133 160.834,-127 160.834,-121 160.834,-121 160.834,-20 160.834,-20 160.834,-14 166.834,-8 172.834,-8"/>
<text text-anchor="middle" x="259.347" y="-120.2" font-family="Times,serif" font-size="11.00" fill="gray">Global</text>
</g>
<!-- \\OAuthNegotiator -->
<g id="node1" class="node"><title>\\OAuthNegotiator</title>
<polygon fill="none" stroke="black" points="316.864,-106 201.831,-106 201.831,-70 316.864,-70 316.864,-106"/>
<text text-anchor="middle" x="259.347" y="-84.7" font-family="Courier,monospace" font-size="11.00">OAuthNegotiator</text>
</g>
<!-- \\OAuthNegotiator_Exception -->
<g id="node2" class="node"><title>\\OAuthNegotiator_Exception</title>
<polygon fill="none" stroke="black" points="349.874,-52 168.821,-52 168.821,-16 349.874,-16 349.874,-52"/>
<text text-anchor="middle" x="259.347" y="-30.7" font-family="Courier,monospace" font-size="11.00">OAuthNegotiator_Exception</text>
</g>
<!-- \\Exception -->
<g id="node3" class="node"><title>\\Exception</title>
<ellipse fill="none" stroke="black" cx="48.417" cy="-34" rx="48.3341" ry="18"/>
<text text-anchor="middle" x="48.417" y="-29.8" font-family="Times,serif" font-size="14.00" fill="gray">\Exception</text>
</g>
<!-- \\OAuthNegotiator_Exception&#45;&gt;\\Exception -->
<g id="edge1" class="edge"><title>\\OAuthNegotiator_Exception&#45;&gt;\\Exception</title>
<path fill="none" stroke="black" d="M168.833,-34C147.897,-34 126.143,-34 107.029,-34"/>
<polygon fill="none" stroke="black" points="106.999,-30.5001 96.9986,-34 106.999,-37.5001 106.999,-30.5001"/>
</g>
</g>
</svg>
